<svg width="30" height="31" viewBox="0 0 30 31" fill="none" xmlns="http://www.w3.org/2000/svg">
<g id="eva:arrow-back-fill">
<path id="Vector" d="M6.25 14.7159H21.075L16.5375 9.26592C16.3253 9.01065 16.2232 8.68155 16.2537 8.35102C16.2842 8.02048 16.4447 7.71559 16.7 7.50342C16.9553 7.29125 17.2844 7.18917 17.6149 7.21964C17.9454 7.25012 18.2503 7.41065 18.4625 7.66592L24.7125 15.1659C24.7545 15.2256 24.7922 15.2882 24.825 15.3534C24.825 15.4159 24.825 15.4534 24.9125 15.5159C24.9692 15.6592 24.9988 15.8118 25 15.9659C24.9988 16.12 24.9692 16.2726 24.9125 16.4159C24.9125 16.4784 24.9125 16.5159 24.825 16.5784C24.7922 16.6436 24.7545 16.7063 24.7125 16.7659L18.4625 24.2659C18.345 24.407 18.1978 24.5205 18.0314 24.5983C17.8651 24.6761 17.6836 24.7162 17.5 24.7159C17.2079 24.7165 16.9249 24.6148 16.7 24.4284C16.5734 24.3235 16.4688 24.1946 16.3921 24.0492C16.3154 23.9037 16.2682 23.7446 16.2531 23.5809C16.238 23.4172 16.2553 23.2521 16.3041 23.0951C16.3529 22.9381 16.4322 22.7922 16.5375 22.6659L21.075 17.2159H6.25C5.91848 17.2159 5.60054 17.0842 5.36612 16.8498C5.13169 16.6154 5 16.2974 5 15.9659C5 15.6344 5.13169 15.3165 5.36612 15.082C5.60054 14.8476 5.91848 14.7159 6.25 14.7159Z" fill="#DDE0E4"/>
</g>
</svg>
